<svg width="142" height="85" viewBox="0 0 142 85" fill="none" xmlns="http://www.w3.org/2000/svg">
<mask id="path-1-outside-1_539_34" maskUnits="userSpaceOnUse" x="-1" y="71.4496" width="143" height="14" fill="black">
<rect fill="white" x="-1" y="71.4496" width="143" height="14"/>
<path d="M0.791965 84.4496C0.511814 84.4496 0.439083 84.2718 0.573771 83.9162L4.59825 73.354C4.72216 73.0254 4.89995 72.861 5.13161 72.861H6.26299C6.49465 72.861 6.67244 73.0254 6.79636 73.354L10.8208 83.9162C10.9555 84.2718 10.8828 84.4496 10.6026 84.4496H9.77835C9.49281 84.4496 9.29886 84.3176 9.1965 84.0536L8.18634 81.3787H3.20827L2.19811 84.0536C2.09574 84.3176 1.90179 84.4496 1.61626 84.4496H0.791965ZM3.71739 80.0534H7.67721L6.44078 76.8209C6.32764 76.5192 6.2145 76.1851 6.10137 75.8188C5.99362 75.4524 5.86431 74.9325 5.71346 74.2591H5.68114C5.53029 74.9325 5.39829 75.4524 5.28516 75.8188C5.17741 76.1851 5.06696 76.5192 4.95382 76.8209L3.71739 80.0534ZM12.3644 80.0291V73.3055C12.3644 73.0092 12.499 72.861 12.7684 72.861H13.5119C13.7813 72.861 13.916 73.0092 13.916 73.3055V79.7867C13.916 81.2952 14.1288 82.2811 14.5544 82.7444C14.9854 83.2024 15.6858 83.4313 16.6555 83.4313C17.6253 83.4313 18.323 83.2024 18.7486 82.7444C19.1796 82.2811 19.3951 81.2952 19.3951 79.7867V73.3055C19.3951 73.0092 19.5298 72.861 19.7991 72.861H20.5426C20.812 72.861 20.9467 73.0092 20.9467 73.3055V80.0291C20.9467 81.737 20.5534 82.9411 19.7668 83.6415C18.9856 84.3418 17.9485 84.692 16.6555 84.692C15.3625 84.692 14.3227 84.3418 13.5361 83.6415C12.755 82.9411 12.3644 81.737 12.3644 80.0291ZM23.0559 74.251C22.7596 74.251 22.6114 74.1298 22.6114 73.8874V73.2247C22.6114 72.9823 22.7596 72.861 23.0559 72.861H31.6059C31.9022 72.861 32.0504 72.9823 32.0504 73.2247V73.8874C32.0504 74.1298 31.9022 74.251 31.6059 74.251H28.1067V84.0051C28.1067 84.3014 27.972 84.4496 27.7026 84.4496H26.9591C26.6898 84.4496 26.5551 84.3014 26.5551 84.0051V74.251H23.0559ZM33.0848 78.6553C33.0848 76.7697 33.5481 75.2935 34.4747 74.2268C35.4068 73.1547 36.7483 72.6186 38.4992 72.6186C40.2502 72.6186 41.589 73.1547 42.5156 74.2268C43.4476 75.2935 43.9137 76.7697 43.9137 78.6553C43.9137 80.5409 43.4476 82.0198 42.5156 83.0919C41.589 84.1587 40.2502 84.692 38.4992 84.692C36.7483 84.692 35.4068 84.1587 34.4747 83.0919C33.5481 82.0198 33.0848 80.5409 33.0848 78.6553ZM34.7414 78.6553C34.7414 80.1638 35.0512 81.3383 35.6708 82.1787C36.2903 83.0138 37.2331 83.4313 38.4992 83.4313C39.7653 83.4313 40.7081 83.0138 41.3277 82.1787C41.9472 81.3383 42.257 80.1638 42.257 78.6553C42.257 77.1468 41.9472 75.975 41.3277 75.14C40.7081 74.2995 39.7653 73.8793 38.4992 73.8793C37.2331 73.8793 36.2903 74.2995 35.6708 75.14C35.0512 75.975 34.7414 77.1468 34.7414 78.6553ZM46.435 84.4496C46.1657 84.4496 46.031 84.3014 46.031 84.0051V73.3055C46.031 73.0092 46.1657 72.861 46.435 72.861H48.1563C48.3611 72.861 48.5146 73.0227 48.617 73.3459L50.9282 80.5948C51.1653 81.3383 51.3053 81.7882 51.3484 81.9444C51.3915 82.0952 51.4535 82.3754 51.5343 82.7848H51.5828C51.6636 82.3754 51.7256 82.0952 51.7687 81.9444C51.8118 81.7882 51.9518 81.3383 52.1889 80.5948L54.5001 73.3459C54.6025 73.0227 54.7561 72.861 54.9608 72.861H56.6821C56.9515 72.861 57.0862 73.0092 57.0862 73.3055V84.0051C57.0862 84.3014 56.9515 84.4496 56.6821 84.4496H55.9386C55.6692 84.4496 55.5345 84.3014 55.5345 84.0051V75.5279C55.5345 75.3124 55.5399 75.0969 55.5507 74.8814H55.5184L52.5364 83.9566C52.4286 84.2853 52.2509 84.4496 52.003 84.4496H51.1141C50.8663 84.4496 50.6885 84.2853 50.5807 83.9566L47.5987 74.8814H47.5664C47.5772 75.0969 47.5826 75.3124 47.5826 75.5279V84.0051C47.5826 84.3014 47.4479 84.4496 47.1785 84.4496H46.435ZM60.2378 84.4496C59.9685 84.4496 59.8338 84.3014 59.8338 84.0051V73.3055C59.8338 73.0092 59.9685 72.861 60.2378 72.861H67.309C67.6053 72.861 67.7534 72.9823 67.7534 73.2247V73.8227C67.7534 74.0651 67.6053 74.1864 67.309 74.1864H61.3854V77.7744H66.8241C67.1204 77.7744 67.2686 77.8957 67.2686 78.1381V78.7361C67.2686 78.9786 67.1204 79.0998 66.8241 79.0998H61.3854V83.1243H67.5514C67.8477 83.1243 67.9959 83.2455 67.9959 83.4879V84.0859C67.9959 84.3284 67.8477 84.4496 67.5514 84.4496H60.2378ZM69.4667 78.6553C69.4667 76.7697 69.9327 75.2935 70.8647 74.2268C71.8022 73.1547 73.1463 72.6186 74.8973 72.6186C75.9209 72.6186 76.7668 72.7937 77.4348 73.1439C78.1029 73.4887 78.5824 73.9628 78.8733 74.5662C79.0241 74.8787 78.9999 75.0942 78.8005 75.2127L78.1621 75.5844C77.9466 75.7083 77.7554 75.606 77.5884 75.2773C77.4106 74.9379 77.1196 74.6201 76.7156 74.3237C76.3115 74.0274 75.7324 73.8793 74.9781 73.8793C73.6312 73.8793 72.6507 74.2995 72.0365 75.14C71.4277 75.975 71.1233 77.1468 71.1233 78.6553C71.1233 80.1638 71.4277 81.3383 72.0365 82.1787C72.6507 83.0138 73.6312 83.4313 74.9781 83.4313C75.7539 83.4313 76.3735 83.2536 76.8368 82.898C77.3055 82.5424 77.6449 82.1707 77.855 81.7828C78.022 81.4703 78.216 81.376 78.4369 81.4999L79.1076 81.8797C79.3016 81.9929 79.3177 82.2084 79.1561 82.5262C78.8383 83.1458 78.3211 83.663 77.6045 84.0778C76.888 84.4873 75.9856 84.692 74.8973 84.692C73.1463 84.692 71.8022 84.1587 70.8647 83.0919C69.9327 82.0198 69.4667 80.5409 69.4667 78.6553ZM81.831 84.4496C81.5617 84.4496 81.427 84.3014 81.427 84.0051V73.3055C81.427 73.0092 81.5617 72.861 81.831 72.861H82.5745C82.8439 72.861 82.9786 73.0092 82.9786 73.3055V77.7583H88.6193V73.3055C88.6193 73.0092 88.754 72.861 89.0234 72.861H89.7668C90.0362 72.861 90.1709 73.0092 90.1709 73.3055V84.0051C90.1709 84.3014 90.0362 84.4496 89.7668 84.4496H89.0234C88.754 84.4496 88.6193 84.3014 88.6193 84.0051V79.0836H82.9786V84.0051C82.9786 84.3014 82.8439 84.4496 82.5745 84.4496H81.831ZM92.3367 84.4496C92.0565 84.4496 91.9838 84.2718 92.1185 83.9162L96.143 73.354C96.2669 73.0254 96.4447 72.861 96.6763 72.861H97.8077C98.0394 72.861 98.2172 73.0254 98.3411 73.354L102.366 83.9162C102.5 84.2718 102.428 84.4496 102.147 84.4496H101.323C101.038 84.4496 100.844 84.3176 100.741 84.0536L99.7311 81.3787H94.753L93.7428 84.0536C93.6405 84.3176 93.4465 84.4496 93.161 84.4496H92.3367ZM95.2621 80.0534H99.2219L97.9855 76.8209C97.8724 76.5192 97.7592 76.1851 97.6461 75.8188C97.5383 75.4524 97.409 74.9325 97.2582 74.2591H97.2259C97.075 74.9325 96.943 75.4524 96.8299 75.8188C96.7221 76.1851 96.6117 76.5192 96.4985 76.8209L95.2621 80.0534ZM104.313 84.4496C104.044 84.4496 103.909 84.3014 103.909 84.0051V73.3055C103.909 73.0092 104.044 72.861 104.313 72.861H105.348C105.725 72.861 105.994 72.9957 106.156 73.2651L111.215 81.7424H111.247C111.236 81.5269 111.231 81.3114 111.231 81.0959V73.3055C111.231 73.0092 111.365 72.861 111.635 72.861H112.378C112.648 72.861 112.782 73.0092 112.782 73.3055V84.0051C112.782 84.3014 112.648 84.4496 112.378 84.4496H111.667C111.29 84.4496 111.021 84.3149 110.859 84.0455L105.477 75.0511H105.445C105.455 75.2666 105.461 75.4821 105.461 75.6976V84.0051C105.461 84.3014 105.326 84.4496 105.057 84.4496H104.313ZM115.934 84.4496C115.665 84.4496 115.53 84.3014 115.53 84.0051V73.3055C115.53 73.0092 115.665 72.861 115.934 72.861H116.678C116.947 72.861 117.082 73.0092 117.082 73.3055V84.0051C117.082 84.3014 116.947 84.4496 116.678 84.4496H115.934ZM119.199 78.6553C119.199 76.7697 119.665 75.2935 120.597 74.2268C121.534 73.1547 122.879 72.6186 124.629 72.6186C125.653 72.6186 126.499 72.7937 127.167 73.1439C127.835 73.4887 128.315 73.9628 128.605 74.5662C128.756 74.8787 128.732 75.0942 128.533 75.2127L127.894 75.5844C127.679 75.7083 127.488 75.606 127.321 75.2773C127.143 74.9379 126.852 74.6201 126.448 74.3237C126.044 74.0274 125.465 73.8793 124.71 73.8793C123.363 73.8793 122.383 74.2995 121.769 75.14C121.16 75.975 120.856 77.1468 120.856 78.6553C120.856 80.1638 121.16 81.3383 121.769 82.1787C122.383 83.0138 123.363 83.4313 124.71 83.4313C125.486 83.4313 126.106 83.2536 126.569 82.898C127.038 82.5424 127.377 82.1707 127.587 81.7828C127.754 81.4703 127.948 81.376 128.169 81.4999L128.84 81.8797C129.034 81.9929 129.05 82.2084 128.888 82.5262C128.57 83.1458 128.053 83.663 127.337 84.0778C126.62 84.4873 125.718 84.692 124.629 84.692C122.879 84.692 121.534 84.1587 120.597 83.0919C119.665 82.0198 119.199 80.5409 119.199 78.6553ZM130.577 84.4496C130.297 84.4496 130.224 84.2718 130.359 83.9162L134.384 73.354C134.507 73.0254 134.685 72.861 134.917 72.861H136.048C136.28 72.861 136.458 73.0254 136.582 73.354L140.606 83.9162C140.741 84.2718 140.668 84.4496 140.388 84.4496H139.564C139.278 84.4496 139.084 84.3176 138.982 84.0536L137.972 81.3787H132.994L131.983 84.0536C131.881 84.3176 131.687 84.4496 131.402 84.4496H130.577ZM133.503 80.0534H137.463L136.226 76.8209C136.113 76.5192 136 76.1851 135.887 75.8188C135.779 75.4524 135.65 74.9325 135.499 74.2591H135.466C135.316 74.9325 135.184 75.4524 135.07 75.8188C134.963 76.1851 134.852 76.5192 134.739 76.8209L133.503 80.0534Z"/>
</mask>
<path d="M0.573771 83.9162L-0.129223 83.6484L-0.129744 83.6497L0.573771 83.9162ZM4.59825 73.354L5.30124 73.6218L5.30217 73.6194L4.59825 73.354ZM6.79636 73.354L6.09243 73.6194L6.09336 73.6218L6.79636 73.354ZM10.8208 83.9162L11.5243 83.6497L11.5238 83.6484L10.8208 83.9162ZM9.1965 84.0536L8.49269 84.3194L8.49509 84.3256L9.1965 84.0536ZM8.18634 81.3787L8.89012 81.1129L8.70639 80.6264H8.18634V81.3787ZM3.20827 81.3787V80.6264H2.68822L2.50449 81.1129L3.20827 81.3787ZM2.19811 84.0536L2.89954 84.3256L2.90189 84.3194L2.19811 84.0536ZM3.71739 80.0534L3.01474 79.7846L2.62419 80.8057H3.71739V80.0534ZM7.67721 80.0534V80.8057H8.77042L8.37986 79.7846L7.67721 80.0534ZM6.44078 76.8209L5.73637 77.085L5.73813 77.0896L6.44078 76.8209ZM6.10137 75.8188L5.37958 76.0311L5.38257 76.0408L6.10137 75.8188ZM5.71346 74.2591L6.44757 74.0947L6.31589 73.5068H5.71346V74.2591ZM5.68114 74.2591V73.5068H5.07872L4.94704 74.0947L5.68114 74.2591ZM5.28516 75.8188L4.56629 75.5968L4.56343 75.6065L5.28516 75.8188ZM4.95382 76.8209L5.65649 77.0896L5.65822 77.085L4.95382 76.8209ZM0.791965 83.6973C0.793511 83.6973 0.863814 83.6963 0.959229 83.7444C1.07208 83.8013 1.17096 83.9027 1.22359 84.0314C1.26885 84.142 1.26031 84.2244 1.25891 84.2364C1.25725 84.2507 1.25724 84.2356 1.27729 84.1827L-0.129744 83.6497C-0.207477 83.855 -0.321276 84.2288 -0.16898 84.6011C0.0345949 85.0987 0.51043 85.2019 0.791965 85.2019V83.6973ZM1.27676 84.1841L5.30124 73.6218L3.89526 73.0861L-0.129221 83.6484L1.27676 84.1841ZM5.30217 73.6194C5.31987 73.5724 5.33454 73.5447 5.34294 73.531C5.35128 73.5174 5.35021 73.5228 5.33514 73.5367C5.31885 73.5518 5.28993 73.5732 5.24815 73.59C5.20582 73.607 5.1648 73.6133 5.13161 73.6133V72.1087C4.43302 72.1087 4.06209 72.6436 3.89433 73.0886L5.30217 73.6194ZM5.13161 73.6133H6.26299V72.1087H5.13161V73.6133ZM6.26299 73.6133C6.2298 73.6133 6.18878 73.607 6.14645 73.59C6.10468 73.5732 6.07575 73.5518 6.05947 73.5367C6.04439 73.5228 6.04332 73.5174 6.05166 73.531C6.06006 73.5447 6.07473 73.5724 6.09244 73.6194L7.50027 73.0886C7.33251 72.6436 6.96158 72.1087 6.26299 72.1087V73.6133ZM6.09336 73.6218L10.1178 84.1841L11.5238 83.6484L7.49935 73.0861L6.09336 73.6218ZM10.1173 84.1827C10.1374 84.2356 10.1374 84.2507 10.1357 84.2364C10.1343 84.2244 10.1258 84.142 10.171 84.0314C10.2236 83.9027 10.3225 83.8013 10.4354 83.7444C10.5308 83.6963 10.6011 83.6973 10.6026 83.6973V85.2019C10.8842 85.2019 11.36 85.0987 11.5636 84.6011C11.7159 84.2288 11.6021 83.855 11.5243 83.6497L10.1173 84.1827ZM10.6026 83.6973H9.77835V85.2019H10.6026V83.6973ZM9.77835 83.6973C9.76466 83.6973 9.76713 83.6957 9.78103 83.6995C9.796 83.7036 9.81813 83.7124 9.84199 83.7287C9.86589 83.7449 9.8827 83.7627 9.89277 83.7761C9.90216 83.7887 9.90226 83.7929 9.8979 83.7816L8.49509 84.3256C8.58979 84.5698 8.74833 84.8043 8.99547 84.9725C9.24213 85.1404 9.5178 85.2019 9.77835 85.2019V83.6973ZM9.90028 83.7878L8.89012 81.1129L7.48255 81.6445L8.49271 84.3194L9.90028 83.7878ZM8.18634 80.6264H3.20827V82.131H8.18634V80.6264ZM2.50449 81.1129L1.49433 83.7878L2.90189 84.3194L3.91205 81.6445L2.50449 81.1129ZM1.4967 83.7816C1.49234 83.7929 1.49244 83.7887 1.50184 83.7761C1.5119 83.7627 1.52872 83.7449 1.55261 83.7287C1.57647 83.7124 1.5986 83.7036 1.61357 83.6995C1.62747 83.6957 1.62994 83.6973 1.61626 83.6973V85.2019C1.87681 85.2019 2.15247 85.1404 2.39913 84.9725C2.64628 84.8043 2.80481 84.5698 2.89952 84.3256L1.4967 83.7816ZM1.61626 83.6973H0.791965V85.2019H1.61626V83.6973ZM3.71739 80.8057H7.67721V79.3011H3.71739V80.8057ZM8.37986 79.7846L7.14343 76.5521L5.73813 77.0896L6.97457 80.3221L8.37986 79.7846ZM7.14517 76.5567C7.03812 76.2712 6.92971 75.9515 6.82016 75.5968L5.38257 76.0408C5.4993 76.4187 5.61716 76.7671 5.73638 77.085L7.14517 76.5567ZM6.82309 75.6065C6.72228 75.2637 6.59719 74.7626 6.44757 74.0947L4.97936 74.4235C5.13144 75.1025 5.26495 75.6411 5.37964 76.0311L6.82309 75.6065ZM5.71346 73.5068H5.68114V75.0114H5.71346V73.5068ZM4.94704 74.0947C4.79769 74.7614 4.67077 75.2587 4.56636 75.5968L6.00395 76.0408C6.12582 75.6461 6.26289 75.1037 6.41524 74.4235L4.94704 74.0947ZM4.56343 75.6065C4.45992 75.9585 4.35512 76.2749 4.24943 76.5567L5.65822 77.085C5.7788 76.7635 5.89489 76.4118 6.00688 76.0311L4.56343 75.6065ZM4.25118 76.5521L3.01474 79.7846L4.42003 80.3221L5.65647 77.0896L4.25118 76.5521ZM14.5544 82.7444L14.0003 83.2534L14.0066 83.26L14.5544 82.7444ZM18.7486 82.7444L18.1977 82.232L18.1975 82.2323L18.7486 82.7444ZM19.7668 83.6415L19.2665 83.0796L19.2646 83.0813L19.7668 83.6415ZM13.5361 83.6415L13.0339 84.2016L13.0359 84.2033L13.5361 83.6415ZM13.1167 80.0291V73.3055H11.6121V80.0291H13.1167ZM13.1167 73.3055C13.1167 73.2565 13.1293 73.3602 13.022 73.4782C12.9024 73.6098 12.7692 73.6133 12.7684 73.6133V72.1087C12.4983 72.1087 12.1631 72.1863 11.9087 72.4661C11.6667 72.7323 11.6121 73.0582 11.6121 73.3055H13.1167ZM12.7684 73.6133H13.5119V72.1087H12.7684V73.6133ZM13.5119 73.6133C13.5112 73.6133 13.378 73.6098 13.2583 73.4782C13.151 73.3602 13.1637 73.2565 13.1637 73.3055H14.6683C14.6683 73.0582 14.6136 72.7323 14.3716 72.4661C14.1172 72.1863 13.782 72.1087 13.5119 72.1087V73.6133ZM13.1637 73.3055V79.7867H14.6683V73.3055H13.1637ZM13.1637 79.7867C13.1637 80.5708 13.2185 81.2523 13.3402 81.8162C13.4595 82.3688 13.658 82.8807 14.0004 83.2534L15.1084 82.2355C15.0252 82.1449 14.9045 81.9322 14.8109 81.4988C14.7198 81.0768 14.6683 80.5111 14.6683 79.7867H13.1637ZM14.0066 83.26C14.6411 83.9343 15.5892 84.1836 16.6555 84.1836V82.6791C15.7823 82.6791 15.3296 82.4705 15.1022 82.2288L14.0066 83.26ZM16.6555 84.1836C17.7207 84.1836 18.6694 83.9347 19.2996 83.2566L18.1975 82.2323C17.9765 82.4701 17.5298 82.6791 16.6555 82.6791V84.1836ZM19.2994 83.2568C19.6459 82.8843 19.8474 82.3719 19.9684 81.8181C20.0918 81.2534 20.1474 80.5712 20.1474 79.7867H18.6428C18.6428 80.5107 18.5906 81.0757 18.4985 81.4969C18.404 81.9291 18.2822 82.1412 18.1977 82.232L19.2994 83.2568ZM20.1474 79.7867V73.3055H18.6428V79.7867H20.1474ZM20.1474 73.3055C20.1474 73.2565 20.16 73.3602 20.0527 73.4782C19.9331 73.6098 19.7999 73.6133 19.7991 73.6133V72.1087C19.529 72.1087 19.1938 72.1863 18.9394 72.4661C18.6974 72.7323 18.6428 73.0582 18.6428 73.3055H20.1474ZM19.7991 73.6133H20.5426V72.1087H19.7991V73.6133ZM20.5426 73.6133C20.5419 73.6133 20.4087 73.6098 20.289 73.4782C20.1817 73.3602 20.1944 73.2565 20.1944 73.3055H21.699C21.699 73.0582 21.6443 72.7323 21.4023 72.4661C21.148 72.1863 20.8127 72.1087 20.5426 72.1087V73.6133ZM20.1944 73.3055V80.0291H21.699V73.3055H20.1944ZM20.1944 80.0291C20.1944 81.6523 19.8162 82.5902 19.2665 83.0796L20.2671 84.2033C21.2905 83.292 21.699 81.8216 21.699 80.0291H20.1944ZM19.2646 83.0813C18.6516 83.6309 17.8081 83.9397 16.6555 83.9397V85.4443C18.0889 85.4443 19.3196 85.0528 20.269 84.2016L19.2646 83.0813ZM16.6555 83.9397C15.5031 83.9397 14.6557 83.631 14.0364 83.0796L13.0359 84.2033C13.9898 85.0527 15.2219 85.4443 16.6555 85.4443V83.9397ZM14.0383 83.0813C13.4927 82.5922 13.1167 81.6536 13.1167 80.0291H11.6121C11.6121 81.8203 12.0172 83.29 13.034 84.2016L14.0383 83.0813ZM28.1067 74.251V73.4987H27.3544V74.251H28.1067ZM26.5551 74.251H27.3074V73.4987H26.5551V74.251ZM23.0559 73.4987C22.9911 73.4987 23.0823 73.4824 23.1989 73.5779C23.2616 73.6292 23.3083 73.6949 23.3359 73.7626C23.3616 73.8257 23.3637 73.8728 23.3637 73.8874H21.8591C21.8591 74.1688 21.9525 74.502 22.2462 74.7423C22.511 74.959 22.8243 75.0033 23.0559 75.0033V73.4987ZM23.3637 73.8874V73.2247H21.8591V73.8874H23.3637ZM23.3637 73.2247C23.3637 73.2393 23.3616 73.2863 23.3359 73.3494C23.3083 73.4172 23.2616 73.4829 23.1989 73.5342C23.0823 73.6296 22.9911 73.6133 23.0559 73.6133V72.1087C22.8243 72.1087 22.511 72.153 22.2462 72.3697C21.9525 72.61 21.8591 72.9432 21.8591 73.2247H23.3637ZM23.0559 73.6133H31.6059V72.1087H23.0559V73.6133ZM31.6059 73.6133C31.6706 73.6133 31.5795 73.6296 31.4629 73.5342C31.4001 73.4829 31.3535 73.4172 31.3259 73.3494C31.3002 73.2863 31.2981 73.2393 31.2981 73.2247H32.8026C32.8026 72.9432 32.7093 72.61 32.4156 72.3697C32.1508 72.153 31.8374 72.1087 31.6059 72.1087V73.6133ZM31.2981 73.2247V73.8874H32.8026V73.2247H31.2981ZM31.2981 73.8874C31.2981 73.8728 31.3002 73.8257 31.3259 73.7626C31.3535 73.6949 31.4001 73.6292 31.4629 73.5779C31.5795 73.4824 31.6706 73.4987 31.6059 73.4987V75.0033C31.8374 75.0033 32.1508 74.959 32.4156 74.7423C32.7093 74.502 32.8026 74.1688 32.8026 73.8874H31.2981ZM31.6059 73.4987H28.1067V75.0033H31.6059V73.4987ZM27.3544 74.251V84.0051H28.859V74.251H27.3544ZM27.3544 84.0051C27.3544 84.0541 27.3417 83.9504 27.449 83.8324C27.5687 83.7008 27.7019 83.6973 27.7026 83.6973V85.2019C27.9727 85.2019 28.308 85.1243 28.5623 84.8445C28.8043 84.5783 28.859 84.2524 28.859 84.0051H27.3544ZM27.7026 83.6973H26.9591V85.2019H27.7026V83.6973ZM26.9591 83.6973C26.9599 83.6973 27.0931 83.7008 27.2127 83.8324C27.32 83.9504 27.3074 84.0541 27.3074 84.0051H25.8028C25.8028 84.2524 25.8575 84.5783 26.0994 84.8445C26.3538 85.1243 26.689 85.2019 26.9591 85.2019V83.6973ZM27.3074 84.0051V74.251H25.8028V84.0051H27.3074ZM26.5551 73.4987H23.0559V75.0033H26.5551V73.4987ZM34.4747 74.2268L33.907 73.7332L33.9068 73.7334L34.4747 74.2268ZM42.5156 74.2268L41.9464 74.7187L41.9491 74.7218L42.5156 74.2268ZM42.5156 83.0919L41.9479 82.5984L41.9477 82.5986L42.5156 83.0919ZM34.4747 83.0919L33.9056 83.5839L33.9082 83.5869L34.4747 83.0919ZM35.6708 82.1787L35.0652 82.6251L35.0666 82.627L35.6708 82.1787ZM41.3277 82.1787L41.9318 82.627L41.9332 82.6251L41.3277 82.1787ZM41.3277 75.14L40.7221 75.5863L40.7235 75.5882L41.3277 75.14ZM35.6708 75.14L36.2749 75.5882L36.2763 75.5863L35.6708 75.14ZM33.837 78.6553C33.837 76.8896 34.2698 75.6099 35.0427 74.7201L33.9068 73.7334C32.8264 74.9771 32.3325 76.6497 32.3325 78.6553H33.837ZM35.0425 74.7203C35.7991 73.85 36.9111 73.3709 38.4992 73.3709V71.8663C36.5855 71.8663 35.0144 72.4593 33.907 73.7332L35.0425 74.7203ZM38.4992 73.3709C40.0875 73.3709 41.1956 73.85 41.9464 74.7187L43.0848 73.7348C41.9823 72.4593 40.4128 71.8663 38.4992 71.8663V73.3709ZM41.9491 74.7218C42.7265 75.6115 43.1614 76.8906 43.1614 78.6553H44.666C44.666 76.6487 44.1688 74.9755 43.0821 73.7318L41.9491 74.7218ZM43.1614 78.6553C43.1614 80.4197 42.7266 81.7026 41.9479 82.5984L43.0834 83.5855C44.1687 82.337 44.666 80.6621 44.666 78.6553H43.1614ZM41.9477 82.5986C41.1972 83.4625 40.0888 83.9397 38.4992 83.9397V85.4443C40.4115 85.4443 41.9807 84.8548 43.0835 83.5853L41.9477 82.5986ZM38.4992 83.9397C36.9098 83.9397 35.7975 83.4625 35.0412 82.5969L33.9082 83.5869C35.016 84.8548 36.5867 85.4443 38.4992 85.4443V83.9397ZM35.0439 82.6C34.2697 81.7042 33.837 80.4207 33.837 78.6553H32.3325C32.3325 80.6611 32.8265 82.3354 33.9056 83.5839L35.0439 82.6ZM33.9891 78.6553C33.9891 80.2557 34.3163 81.6092 35.0652 82.6251L36.2763 81.7324C35.7861 81.0673 35.4937 80.0719 35.4937 78.6553H33.9891ZM35.0666 82.627C35.8595 83.6956 37.0531 84.1836 38.4992 84.1836V82.6791C37.4132 82.6791 36.7212 82.332 36.2749 81.7305L35.0666 82.627ZM38.4992 84.1836C39.9453 84.1836 41.139 83.6956 41.9318 82.627L40.7235 81.7305C40.2772 82.332 39.5852 82.6791 38.4992 82.6791V84.1836ZM41.9332 82.6251C42.6821 81.6092 43.0093 80.2557 43.0093 78.6553H41.5047C41.5047 80.0719 41.2124 81.0673 40.7221 81.7324L41.9332 82.6251ZM43.0093 78.6553C43.0093 77.0553 42.6823 75.7032 41.9318 74.6917L40.7235 75.5882C41.2122 76.2469 41.5047 77.2383 41.5047 78.6553H43.0093ZM41.9332 74.6936C41.1411 73.619 39.9472 73.127 38.4992 73.127V74.6316C39.5834 74.6316 40.2751 74.98 40.7221 75.5863L41.9332 74.6936ZM38.4992 73.127C37.0513 73.127 35.8574 73.619 35.0652 74.6936L36.2763 75.5863C36.7233 74.98 37.415 74.6316 38.4992 74.6316V73.127ZM35.0666 74.6917C34.3162 75.7032 33.9891 77.0553 33.9891 78.6553H35.4937C35.4937 77.2383 35.7862 76.2469 36.2749 75.5882L35.0666 74.6917ZM48.617 73.3459L47.8998 73.573L47.9002 73.5744L48.617 73.3459ZM50.9282 80.5948L50.2115 80.8233L50.9282 80.5948ZM51.3484 81.9444L50.6232 82.1445L50.6251 82.1511L51.3484 81.9444ZM51.5343 82.7848L50.7963 82.9305L50.916 83.5371H51.5343V82.7848ZM51.5828 82.7848V83.5371H52.2011L52.3209 82.9305L51.5828 82.7848ZM51.7687 81.9444L52.4921 82.1511L52.4939 82.1444L51.7687 81.9444ZM54.5001 73.3459L55.2169 73.5744L55.2173 73.573L54.5001 73.3459ZM55.5507 74.8814L56.3021 74.9189L56.3416 74.1291H55.5507V74.8814ZM55.5184 74.8814V74.1291H54.9737L54.8037 74.6465L55.5184 74.8814ZM52.5364 83.9566L51.8217 83.7218L51.8215 83.7222L52.5364 83.9566ZM50.5807 83.9566L51.2956 83.7222L51.2954 83.7218L50.5807 83.9566ZM47.5987 74.8814L48.3134 74.6465L48.1434 74.1291H47.5987V74.8814ZM47.5664 74.8814V74.1291H46.7756L46.8151 74.9189L47.5664 74.8814ZM46.435 83.6973C46.4358 83.6973 46.569 83.7008 46.6886 83.8324C46.7959 83.9504 46.7833 84.0541 46.7833 84.0051H45.2787C45.2787 84.2524 45.3333 84.5783 45.5753 84.8445C45.8297 85.1243 46.1649 85.2019 46.435 85.2019V83.6973ZM46.7833 84.0051V73.3055H45.2787V84.0051H46.7833ZM46.7833 73.3055C46.7833 73.2565 46.7959 73.3602 46.6886 73.4782C46.569 73.6098 46.4358 73.6133 46.435 73.6133V72.1087C46.1649 72.1087 45.8297 72.1863 45.5753 72.4661C45.3333 72.7323 45.2787 73.0582 45.2787 73.3055H46.7833ZM46.435 73.6133H48.1563V72.1087H46.435V73.6133ZM48.1563 73.6133C48.1054 73.6133 48.0475 73.6026 47.9909 73.5771C47.9358 73.5522 47.8994 73.5212 47.8796 73.5004C47.8612 73.481 47.8584 73.4718 47.8653 73.4849C47.8721 73.4978 47.8847 73.5254 47.8998 73.573L49.3342 73.1188C49.2078 72.7197 48.8833 72.1087 48.1563 72.1087V73.6133ZM47.9002 73.5744L50.2115 80.8233L51.645 80.3663L49.3337 73.1174L47.9002 73.5744ZM50.2115 80.8233C50.4508 81.5738 50.5851 82.0062 50.6232 82.1444L52.0737 81.7443C52.0256 81.5701 51.8798 81.1028 51.645 80.3663L50.2115 80.8233ZM50.6251 82.1511C50.6584 82.2677 50.715 82.5187 50.7963 82.9305L52.2724 82.6392C52.192 82.2321 52.1247 81.9228 52.0718 81.7377L50.6251 82.1511ZM51.5343 83.5371H51.5828V82.0325H51.5343V83.5371ZM52.3209 82.9305C52.4021 82.5187 52.4587 82.2677 52.492 82.1511L51.0453 81.7377C50.9924 81.9228 50.9251 82.2321 50.8447 82.6392L52.3209 82.9305ZM52.4939 82.1444C52.532 82.0062 52.6664 81.5738 52.9056 80.8233L51.4722 80.3663C51.2373 81.1028 51.0915 81.5701 51.0435 81.7443L52.4939 82.1444ZM52.9056 80.8233L55.2169 73.5744L53.7834 73.1174L51.4722 80.3663L52.9056 80.8233ZM55.2173 73.573C55.2324 73.5254 55.245 73.4978 55.2518 73.4849C55.2587 73.4718 55.2559 73.481 55.2375 73.5004C55.2177 73.5212 55.1813 73.5522 55.1262 73.5771C55.0697 73.6026 55.0117 73.6133 54.9608 73.6133V72.1087C54.2339 72.1087 53.9093 72.7197 53.783 73.1188L55.2173 73.573ZM54.9608 73.6133H56.6821V72.1087H54.9608V73.6133ZM56.6821 73.6133C56.6814 73.6133 56.5481 73.6098 56.4285 73.4782C56.3212 73.3602 56.3339 73.2565 56.3339 73.3055H57.8384C57.8384 73.0582 57.7838 72.7323 57.5418 72.4661C57.2874 72.1863 56.9522 72.1087 56.6821 72.1087V73.6133ZM56.3339 73.3055V84.0051H57.8384V73.3055H56.3339ZM56.3339 84.0051C56.3339 84.0541 56.3212 83.9504 56.4285 83.8324C56.5481 83.7008 56.6814 83.6973 56.6821 83.6973V85.2019C56.9522 85.2019 57.2874 85.1243 57.5418 84.8445C57.7838 84.5783 57.8384 84.2524 57.8384 84.0051H56.3339ZM56.6821 83.6973H55.9386V85.2019H56.6821V83.6973ZM55.9386 83.6973C55.9393 83.6973 56.0726 83.7008 56.1922 83.8324C56.2995 83.9504 56.2868 84.0541 56.2868 84.0051H54.7823C54.7823 84.2524 54.8369 84.5783 55.0789 84.8445C55.3333 85.1243 55.6685 85.2019 55.9386 85.2019V83.6973ZM56.2868 84.0051V75.5279H54.7823V84.0051H56.2868ZM56.2868 75.5279C56.2868 75.3249 56.2919 75.1219 56.3021 74.9189L54.7994 74.8438C54.788 75.0718 54.7823 75.2998 54.7823 75.5279H56.2868ZM55.5507 74.1291H55.5184V75.6336H55.5507V74.1291ZM54.8037 74.6465L51.8217 83.7218L53.2511 84.1915L56.2331 75.1162L54.8037 74.6465ZM51.8215 83.7222C51.7915 83.8139 51.7747 83.808 51.8116 83.7739C51.8326 83.7545 51.8641 83.7327 51.9048 83.717C51.9452 83.7014 51.9804 83.6973 52.003 83.6973V85.2019C52.3113 85.2019 52.6014 85.0928 52.8329 84.8788C53.0475 84.6804 53.1735 84.428 53.2512 84.191L51.8215 83.7222ZM52.003 83.6973H51.1141V85.2019H52.003V83.6973ZM51.1141 83.6973C51.1367 83.6973 51.1719 83.7014 51.2123 83.717C51.253 83.7327 51.2845 83.7545 51.3055 83.7739C51.3424 83.808 51.3256 83.8139 51.2956 83.7222L49.8659 84.191C49.9436 84.428 50.0696 84.6804 50.2843 84.8788C50.5158 85.0928 50.8059 85.2019 51.1141 85.2019V83.6973ZM51.2954 83.7218L48.3134 74.6465L46.884 75.1162L49.866 84.1915L51.2954 83.7218ZM47.5987 74.1291H47.5664V75.6336H47.5987V74.1291ZM46.8151 74.9189C46.8252 75.1219 46.8303 75.3249 46.8303 75.5279H48.3349C48.3349 75.2998 48.3292 75.0718 48.3178 74.8438L46.8151 74.9189ZM46.8303 75.5279V84.0051H48.3349V75.5279H46.8303ZM46.8303 84.0051C46.8303 84.0541 46.8176 83.9504 46.9249 83.8324C47.0446 83.7008 47.1778 83.6973 47.1785 83.6973V85.2019C47.4486 85.2019 47.7839 85.1243 48.0382 84.8445C48.2802 84.5783 48.3349 84.2524 48.3349 84.0051H46.8303ZM47.1785 83.6973H46.435V85.2019H47.1785V83.6973ZM61.3854 74.1864V73.4341H60.6331V74.1864H61.3854ZM61.3854 77.7744H60.6331V78.5267H61.3854V77.7744ZM61.3854 79.0998V78.3475H60.6331V79.0998H61.3854ZM61.3854 83.1243H60.6331V83.8765H61.3854V83.1243ZM60.2379 83.6973C60.2386 83.6973 60.3718 83.7008 60.4915 83.8324C60.5988 83.9504 60.5861 84.0541 60.5861 84.0051H59.0815C59.0815 84.2524 59.1362 84.5783 59.3782 84.8445C59.6325 85.1243 59.9677 85.2019 60.2379 85.2019V83.6973ZM60.5861 84.0051V73.3055H59.0815V84.0051H60.5861ZM60.5861 73.3055C60.5861 73.2565 60.5988 73.3602 60.4915 73.4782C60.3718 73.6098 60.2386 73.6133 60.2379 73.6133V72.1087C59.9677 72.1087 59.6325 72.1863 59.3782 72.4661C59.1362 72.7323 59.0815 73.0582 59.0815 73.3055H60.5861ZM60.2379 73.6133H67.309V72.1087H60.2379V73.6133ZM67.309 73.6133C67.3737 73.6133 67.2826 73.6296 67.1659 73.5342C67.1032 73.4829 67.0566 73.4172 67.029 73.3494C67.0033 73.2863 67.0011 73.2393 67.0011 73.2247H68.5057C68.5057 72.9432 68.4124 72.61 68.1187 72.3697C67.8539 72.153 67.5405 72.1087 67.309 72.1087V73.6133ZM67.0011 73.2247V73.8227H68.5057V73.2247H67.0011ZM67.0011 73.8227C67.0011 73.8081 67.0033 73.7611 67.029 73.698C67.0566 73.6302 67.1032 73.5645 67.1659 73.5132C67.2826 73.4178 67.3737 73.4341 67.309 73.4341V74.9387C67.5405 74.9387 67.8539 74.8943 68.1187 74.6777C68.4124 74.4374 68.5057 74.1042 68.5057 73.8227H67.0011ZM67.309 73.4341H61.3854V74.9387H67.309V73.4341ZM60.6331 74.1864V77.7744H62.1377V74.1864H60.6331ZM61.3854 78.5267H66.8241V77.0222H61.3854V78.5267ZM66.8241 78.5267C66.8889 78.5267 66.7977 78.543 66.6811 78.4476C66.6183 78.3963 66.5717 78.3306 66.5441 78.2628C66.5184 78.1997 66.5163 78.1527 66.5163 78.1381H68.0209C68.0209 77.8566 67.9275 77.5234 67.6338 77.2831C67.369 77.0665 67.0556 77.0222 66.8241 77.0222V78.5267ZM66.5163 78.1381V78.7361H68.0209V78.1381H66.5163ZM66.5163 78.7361C66.5163 78.7215 66.5184 78.6745 66.5441 78.6114C66.5717 78.5437 66.6183 78.4779 66.6811 78.4266C66.7977 78.3312 66.8889 78.3475 66.8241 78.3475V79.8521C67.0556 79.8521 67.369 79.8078 67.6338 79.5911C67.9275 79.3508 68.0209 79.0176 68.0209 78.7361H66.5163ZM66.8241 78.3475H61.3854V79.8521H66.8241V78.3475ZM60.6331 79.0998V83.1243H62.1377V79.0998H60.6331ZM61.3854 83.8765H67.5514V82.372H61.3854V83.8765ZM67.5514 83.8765C67.6162 83.8765 67.525 83.8928 67.4084 83.7974C67.3457 83.7461 67.299 83.6804 67.2714 83.6126C67.2457 83.5495 67.2436 83.5025 67.2436 83.4879H68.7482C68.7482 83.2064 68.6548 82.8732 68.3611 82.6329C68.0963 82.4163 67.783 82.372 67.5514 82.372V83.8765ZM67.2436 83.4879V84.0859H68.7482V83.4879H67.2436ZM67.2436 84.0859C67.2436 84.0714 67.2457 84.0243 67.2714 83.9612C67.299 83.8935 67.3457 83.8277 67.4084 83.7764C67.525 83.681 67.6162 83.6973 67.5514 83.6973V85.2019C67.783 85.2019 68.0963 85.1576 68.3611 84.9409C68.6548 84.7006 68.7482 84.3674 68.7482 84.0859H67.2436ZM67.5514 83.6973H60.2379V85.2019H67.5514V83.6973ZM70.8647 74.2268L70.2984 73.7316L70.2982 73.7318L70.8647 74.2268ZM77.4348 73.1439L77.0855 73.8102L77.0898 73.8124L77.4348 73.1439ZM78.8733 74.5662L78.1956 74.8929L78.1958 74.8932L78.8733 74.5662ZM78.8005 75.2127L79.1791 75.8628L79.185 75.8593L78.8005 75.2127ZM78.1621 75.5844L78.5371 76.2366L78.5407 76.2345L78.1621 75.5844ZM77.5884 75.2773L78.2591 74.9365L78.2548 74.9283L77.5884 75.2773ZM72.0365 75.14L71.4291 74.6961L71.4286 74.6968L72.0365 75.14ZM72.0365 82.1787L71.4272 82.6201L71.4305 82.6245L72.0365 82.1787ZM76.8368 82.898L76.3821 82.2986L76.3788 82.3012L76.8368 82.898ZM77.855 81.7828L78.5165 82.1411L78.5185 82.1374L77.855 81.7828ZM78.4369 81.4999L78.8076 80.8453L78.8049 80.8438L78.4369 81.4999ZM79.1076 81.8797L79.4867 81.2299L79.4783 81.2251L79.1076 81.8797ZM79.1561 82.5262L79.8255 82.8696L79.8267 82.8672L79.1561 82.5262ZM77.6045 84.0778L77.9778 84.731L77.9814 84.7289L77.6045 84.0778ZM70.8647 83.0919L70.297 83.5855L70.2996 83.5885L70.8647 83.0919ZM70.219 78.6553C70.219 76.8906 70.6538 75.6115 71.4312 74.7218L70.2982 73.7318C69.2115 74.9755 68.7144 76.6487 68.7144 78.6553H70.219ZM71.4311 74.722C72.1935 73.8499 73.3093 73.3709 74.8973 73.3709V71.8663C72.9834 71.8663 71.4108 72.4594 70.2984 73.7316L71.4311 74.722ZM74.8973 73.3709C75.8407 73.3709 76.5568 73.533 77.0855 73.8102L77.7841 72.4776C76.9767 72.0544 76.0012 71.8663 74.8973 71.8663V73.3709ZM77.0898 73.8124C77.6314 74.0919 77.9842 74.4543 78.1956 74.8929L79.5509 74.2395C79.1805 73.4713 78.5743 72.8854 77.7798 72.4754L77.0898 73.8124ZM78.1958 74.8932C78.2057 74.9137 78.2122 74.9295 78.2164 74.9408C78.2185 74.9464 78.2199 74.9506 78.2208 74.9535C78.2217 74.9564 78.222 74.9578 78.222 74.9578C78.222 74.9577 78.2216 74.956 78.2211 74.9528C78.2205 74.9495 78.2198 74.9445 78.2193 74.9379C78.2182 74.9247 78.2177 74.9042 78.2207 74.8781C78.227 74.822 78.2478 74.7532 78.292 74.6871C78.3353 74.6226 78.3845 74.5848 78.4161 74.5661L79.185 75.8593C79.4708 75.6894 79.6753 75.4063 79.7158 75.0463C79.7506 74.7366 79.6542 74.4534 79.5508 74.2391L78.1958 74.8932ZM78.422 74.5626L77.7836 74.9343L78.5407 76.2345L79.1791 75.8628L78.422 74.5626ZM77.7871 74.9323C77.8134 74.9171 77.8749 74.8885 77.9652 74.8837C78.0606 74.8786 78.147 74.9025 78.212 74.9373C78.2419 74.9533 78.2631 74.9693 78.2764 74.9807C78.2895 74.992 78.296 74.9997 78.2967 75.0005C78.2969 75.0008 78.2828 74.9834 78.259 74.9365L76.9177 75.6182C77.0273 75.8338 77.2052 76.105 77.5021 76.2639C77.8635 76.4573 78.243 76.4057 78.5371 76.2366L77.7871 74.9323ZM78.2548 74.9283C78.01 74.4609 77.6297 74.0612 77.1605 73.7171L76.2707 74.9304C76.6096 75.1789 76.8112 75.4149 76.922 75.6264L78.2548 74.9283ZM77.1605 73.7171C76.5769 73.2892 75.8158 73.127 74.9781 73.127V74.6316C75.6489 74.6316 76.0461 74.7657 76.2707 74.9304L77.1605 73.7171ZM74.9781 73.127C73.4688 73.127 72.2253 73.6066 71.4291 74.6961L72.6439 75.5838C73.0761 74.9924 73.7936 74.6316 74.9781 74.6316V73.127ZM71.4286 74.6968C70.6917 75.7075 70.371 77.0576 70.371 78.6553H71.8756C71.8756 77.236 72.1637 76.2425 72.6444 75.5831L71.4286 74.6968ZM70.371 78.6553C70.371 80.2534 70.6919 81.6049 71.4273 82.6201L72.6458 81.7374C72.1635 81.0717 71.8756 80.0742 71.8756 78.6553H70.371ZM71.4305 82.6245C72.2273 83.7079 73.4706 84.1836 74.9781 84.1836V82.6791C73.7918 82.6791 73.074 82.3197 72.6425 81.733L71.4305 82.6245ZM74.9781 84.1836C75.8653 84.1836 76.6627 83.9799 77.2948 83.4948L76.3788 82.3012C76.0842 82.5273 75.6425 82.6791 74.9781 82.6791V84.1836ZM77.2915 83.4973C77.8185 83.0975 78.2414 82.649 78.5165 82.1411L77.1936 81.4245C77.0484 81.6924 76.7926 81.9873 76.3821 82.2986L77.2915 83.4973ZM78.5185 82.1374C78.5403 82.0965 78.5518 82.0844 78.548 82.0887C78.5441 82.0931 78.5149 82.125 78.4547 82.1543C78.3889 82.1862 78.3076 82.2043 78.2227 82.1983C78.1426 82.1926 78.0895 82.1677 78.0688 82.156L78.8049 80.8438C78.5226 80.6854 78.1564 80.6263 77.7969 80.8011C77.4916 80.9495 77.306 81.2141 77.1916 81.4281L78.5185 82.1374ZM78.0662 82.1545L78.7369 82.5344L79.4783 81.2251L78.8076 80.8453L78.0662 82.1545ZM78.7286 82.5296C78.6896 82.5068 78.6331 82.4628 78.5859 82.389C78.5381 82.3142 78.5193 82.2391 78.515 82.1825C78.5112 82.1308 78.5198 82.1032 78.5182 82.1091C78.5167 82.1145 78.509 82.1391 78.4855 82.1853L79.8267 82.8672C79.9336 82.657 80.0385 82.3773 80.0154 82.07C79.988 81.7041 79.7876 81.4054 79.4867 81.2299L78.7286 82.5296ZM78.4868 82.1828C78.2464 82.6513 77.8431 83.0704 77.2276 83.4268L77.9814 84.7289C78.799 84.2556 79.4301 83.6403 79.8255 82.8696L78.4868 82.1828ZM77.2313 83.4247C76.659 83.7517 75.8951 83.9397 74.8973 83.9397V85.4443C76.076 85.4443 77.1169 85.2229 77.9778 84.731L77.2313 83.4247ZM74.8973 83.9397C73.3081 83.9397 72.1919 83.4626 71.4298 82.5953L70.2996 83.5885C71.4124 84.8548 72.9846 85.4443 74.8973 85.4443V83.9397ZM71.4325 82.5984C70.6537 81.7026 70.219 80.4197 70.219 78.6553H68.7144C68.7144 80.6621 69.2116 82.337 70.297 83.5855L71.4325 82.5984ZM82.9786 77.7583H82.2263V78.5106H82.9786V77.7583ZM88.6193 77.7583V78.5106H89.3716V77.7583H88.6193ZM88.6193 79.0836H89.3716V78.3313H88.6193V79.0836ZM82.9786 79.0836V78.3313H82.2263V79.0836H82.9786ZM81.831 83.6973C81.8318 83.6973 81.965 83.7008 82.0846 83.8324C82.1919 83.9504 82.1793 84.0541 82.1793 84.0051H80.6747C80.6747 84.2524 80.7293 84.5783 80.9713 84.8445C81.2257 85.1243 81.5609 85.2019 81.831 85.2019V83.6973ZM82.1793 84.0051V73.3055H80.6747V84.0051H82.1793ZM82.1793 73.3055C82.1793 73.2565 82.1919 73.3602 82.0846 73.4782C81.965 73.6098 81.8318 73.6133 81.831 73.6133V72.1087C81.5609 72.1087 81.2257 72.1863 80.9713 72.4661C80.7293 72.7323 80.6747 73.0582 80.6747 73.3055H82.1793ZM81.831 73.6133H82.5745V72.1087H81.831V73.6133ZM82.5745 73.6133C82.5738 73.6133 82.4406 73.6098 82.3209 73.4782C82.2136 73.3602 82.2263 73.2565 82.2263 73.3055H83.7309C83.7309 73.0582 83.6762 72.7323 83.4342 72.4661C83.1799 72.1863 82.8446 72.1087 82.5745 72.1087V73.6133ZM82.2263 73.3055V77.7583H83.7309V73.3055H82.2263ZM82.9786 78.5106H88.6193V77.006H82.9786V78.5106ZM89.3716 77.7583V73.3055H87.867V77.7583H89.3716ZM89.3716 73.3055C89.3716 73.2565 89.3843 73.3602 89.277 73.4782C89.1573 73.6098 89.0241 73.6133 89.0234 73.6133V72.1087C88.7533 72.1087 88.418 72.1863 88.1637 72.4661C87.9217 72.7323 87.867 73.0582 87.867 73.3055H89.3716ZM89.0234 73.6133H89.7668V72.1087H89.0234V73.6133ZM89.7668 73.6133C89.7661 73.6133 89.6329 73.6098 89.5132 73.4782C89.4059 73.3602 89.4186 73.2565 89.4186 73.3055H90.9232C90.9232 73.0582 90.8685 72.7323 90.6265 72.4661C90.3722 72.1863 90.0369 72.1087 89.7668 72.1087V73.6133ZM89.4186 73.3055V84.0051H90.9232V73.3055H89.4186ZM89.4186 84.0051C89.4186 84.0541 89.4059 83.9504 89.5132 83.8324C89.6329 83.7008 89.7661 83.6973 89.7668 83.6973V85.2019C90.0369 85.2019 90.3722 85.1243 90.6265 84.8445C90.8685 84.5783 90.9232 84.2524 90.9232 84.0051H89.4186ZM89.7668 83.6973H89.0234V85.2019H89.7668V83.6973ZM89.0234 83.6973C89.0241 83.6973 89.1573 83.7008 89.277 83.8324C89.3843 83.9504 89.3716 84.0541 89.3716 84.0051H87.867C87.867 84.2524 87.9217 84.5783 88.1637 84.8445C88.418 85.1243 88.7533 85.2019 89.0234 85.2019V83.6973ZM89.3716 84.0051V79.0836H87.867V84.0051H89.3716ZM88.6193 78.3313H82.9786V79.8359H88.6193V78.3313ZM82.2263 79.0836V84.0051H83.7309V79.0836H82.2263ZM82.2263 84.0051C82.2263 84.0541 82.2136 83.9504 82.3209 83.8324C82.4406 83.7008 82.5738 83.6973 82.5745 83.6973V85.2019C82.8446 85.2019 83.1799 85.1243 83.4342 84.8445C83.6762 84.5783 83.7309 84.2524 83.7309 84.0051H82.2263ZM82.5745 83.6973H81.831V85.2019H82.5745V83.6973ZM92.1185 83.9162L91.4155 83.6484L91.415 83.6497L92.1185 83.9162ZM96.143 73.354L96.846 73.6218L96.8469 73.6194L96.143 73.354ZM98.3411 73.354L97.6372 73.6194L97.6381 73.6218L98.3411 73.354ZM102.366 83.9162L103.069 83.6497L103.069 83.6484L102.366 83.9162ZM100.741 84.0536L100.037 84.3194L100.04 84.3256L100.741 84.0536ZM99.7311 81.3787L100.435 81.1129L100.251 80.6264H99.7311V81.3787ZM94.753 81.3787V80.6264H94.2329L94.0492 81.1129L94.753 81.3787ZM93.7428 84.0536L94.4443 84.3256L94.4466 84.3194L93.7428 84.0536ZM95.2621 80.0534L94.5595 79.7846L94.1689 80.8057H95.2621V80.0534ZM99.2219 80.0534V80.8057H100.315L99.9246 79.7846L99.2219 80.0534ZM97.9855 76.8209L97.2811 77.085L97.2829 77.0896L97.9855 76.8209ZM97.6461 75.8188L96.9243 76.0311L96.9273 76.0408L97.6461 75.8188ZM97.2582 74.2591L97.9923 74.0947L97.8606 73.5068H97.2582V74.2591ZM97.2259 74.2591V73.5068H96.6234L96.4918 74.0947L97.2259 74.2591ZM96.8299 75.8188L96.111 75.5968L96.1082 75.6065L96.8299 75.8188ZM96.4986 76.8209L97.2012 77.0896L97.2029 77.085L96.4986 76.8209ZM92.3367 83.6973C92.3382 83.6973 92.4085 83.6963 92.504 83.7444C92.6168 83.8013 92.7157 83.9027 92.7683 84.0314C92.8136 84.142 92.805 84.2244 92.8036 84.2364C92.802 84.2507 92.802 84.2356 92.822 84.1827L91.415 83.6497C91.3372 83.855 91.2234 84.2288 91.3757 84.6011C91.5793 85.0987 92.0552 85.2019 92.3367 85.2019V83.6973ZM92.8215 84.1841L96.846 73.6218L95.44 73.0861L91.4155 83.6484L92.8215 84.1841ZM96.8469 73.6194C96.8646 73.5724 96.8793 73.5447 96.8877 73.531C96.896 73.5174 96.8949 73.5228 96.8799 73.5367C96.8636 73.5518 96.8346 73.5732 96.7929 73.59C96.7505 73.607 96.7095 73.6133 96.6763 73.6133V72.1087C95.9777 72.1087 95.6068 72.6436 95.439 73.0886L96.8469 73.6194ZM96.6763 73.6133H97.8077V72.1087H96.6763V73.6133ZM97.8077 73.6133C97.7745 73.6133 97.7335 73.607 97.6912 73.59C97.6494 73.5732 97.6205 73.5518 97.6042 73.5367C97.5891 73.5228 97.588 73.5174 97.5964 73.531C97.6048 73.5447 97.6195 73.5724 97.6372 73.6194L99.045 73.0886C98.8772 72.6436 98.5063 72.1087 97.8077 72.1087V73.6133ZM97.6381 73.6218L101.663 84.1841L103.069 83.6484L99.0441 73.0861L97.6381 73.6218ZM101.662 84.1827C101.682 84.2356 101.682 84.2507 101.68 84.2364C101.679 84.2244 101.67 84.142 101.716 84.0314C101.768 83.9027 101.867 83.8013 101.98 83.7444C102.076 83.6963 102.146 83.6973 102.147 83.6973V85.2019C102.429 85.2019 102.905 85.0987 103.108 84.6011C103.261 84.2288 103.147 83.855 103.069 83.6497L101.662 84.1827ZM102.147 83.6973H101.323V85.2019H102.147V83.6973ZM101.323 83.6973C101.309 83.6973 101.312 83.6957 101.326 83.6995C101.341 83.7036 101.363 83.7124 101.387 83.7287C101.411 83.7449 101.427 83.7627 101.437 83.7761C101.447 83.7887 101.447 83.7929 101.443 83.7816L100.04 84.3256C100.135 84.5698 100.293 84.8043 100.54 84.9725C100.787 85.1404 101.063 85.2019 101.323 85.2019V83.6973ZM101.445 83.7878L100.435 81.1129L99.0273 81.6445L100.037 84.3194L101.445 83.7878ZM99.7311 80.6264H94.753V82.131H99.7311V80.6264ZM94.0492 81.1129L93.039 83.7878L94.4466 84.3194L95.4568 81.6445L94.0492 81.1129ZM93.0414 83.7816C93.0371 83.7929 93.0372 83.7887 93.0466 83.7761C93.0566 83.7627 93.0734 83.7449 93.0973 83.7287C93.1212 83.7124 93.1433 83.7036 93.1583 83.6995C93.1722 83.6957 93.1747 83.6973 93.161 83.6973V85.2019C93.4215 85.2019 93.6972 85.1404 93.9439 84.9725C94.191 84.8043 94.3495 84.5698 94.4442 84.3256L93.0414 83.7816ZM93.161 83.6973H92.3367V85.2019H93.161V83.6973ZM95.2621 80.8057H99.2219V79.3011H95.2621V80.8057ZM99.9246 79.7846L98.6881 76.5521L97.2829 77.0896L98.5193 80.3221L99.9246 79.7846ZM98.6899 76.5567C98.5828 76.2712 98.4744 75.9515 98.3649 75.5968L96.9273 76.0408C97.044 76.4187 97.1619 76.7671 97.2811 77.085L98.6899 76.5567ZM98.3678 75.6065C98.267 75.2637 98.1419 74.7626 97.9923 74.0947L96.5241 74.4235C96.6762 75.1025 96.8097 75.6411 96.9244 76.0311L98.3678 75.6065ZM97.2582 73.5068H97.2259V75.0114H97.2582V73.5068ZM96.4918 74.0947C96.3424 74.7614 96.2155 75.2587 96.1111 75.5968L97.5487 76.0408C97.6705 75.6461 97.8076 75.1037 97.96 74.4235L96.4918 74.0947ZM96.1082 75.6065C96.0046 75.9585 95.8998 76.2749 95.7942 76.5567L97.2029 77.085C97.3235 76.7635 97.4396 76.4118 97.5516 76.0311L96.1082 75.6065ZM95.7959 76.5521L94.5595 79.7846L95.9648 80.3221L97.2012 77.0896L95.7959 76.5521ZM106.156 73.2651L106.802 72.8796L106.801 72.878L106.156 73.2651ZM111.215 81.7424L110.569 82.1279L110.787 82.4946H111.215V81.7424ZM111.247 81.7424V82.4946H112.038L111.998 81.7048L111.247 81.7424ZM110.859 84.0455L110.213 84.4318L110.214 84.4326L110.859 84.0455ZM105.477 75.0511L106.122 74.6648L105.903 74.2988H105.477V75.0511ZM105.445 75.0511V74.2988H104.654L104.693 75.0886L105.445 75.0511ZM104.313 83.6973C104.314 83.6973 104.447 83.7008 104.567 83.8324C104.674 83.9504 104.661 84.0541 104.661 84.0051H103.157C103.157 84.2524 103.211 84.5783 103.453 84.8445C103.708 85.1243 104.043 85.2019 104.313 85.2019V83.6973ZM104.661 84.0051V73.3055H103.157V84.0051H104.661ZM104.661 73.3055C104.661 73.2565 104.674 73.3602 104.567 73.4782C104.447 73.6098 104.314 73.6133 104.313 73.6133V72.1087C104.043 72.1087 103.708 72.1863 103.453 72.4661C103.211 72.7323 103.157 73.0582 103.157 73.3055H104.661ZM104.313 73.6133H105.348V72.1087H104.313V73.6133ZM105.348 73.6133C105.448 73.6133 105.489 73.6313 105.496 73.6349C105.498 73.636 105.499 73.6367 105.499 73.6368C105.499 73.6369 105.5 73.6369 105.5 73.6371C105.5 73.6373 105.501 73.6383 105.503 73.6403C105.504 73.6425 105.507 73.6462 105.511 73.6521L106.801 72.878C106.474 72.3335 105.927 72.1087 105.348 72.1087V73.6133ZM105.51 73.6506L110.569 82.1279L111.861 81.3568L106.802 72.8796L105.51 73.6506ZM111.215 82.4946H111.247V80.9901H111.215V82.4946ZM111.998 81.7048C111.988 81.5018 111.983 81.2988 111.983 81.0959H110.478C110.478 81.3239 110.484 81.5519 110.496 81.7799L111.998 81.7048ZM111.983 81.0959V73.3055H110.478V81.0959H111.983ZM111.983 73.3055C111.983 73.2565 111.996 73.3602 111.888 73.4782C111.769 73.6098 111.636 73.6133 111.635 73.6133V72.1087C111.365 72.1087 111.029 72.1863 110.775 72.4661C110.533 72.7323 110.478 73.0582 110.478 73.3055H111.983ZM111.635 73.6133H112.378V72.1087H111.635V73.6133ZM112.378 73.6133C112.378 73.6133 112.244 73.6098 112.125 73.4782C112.017 73.3602 112.03 73.2565 112.03 73.3055H113.535C113.535 73.0582 113.48 72.7323 113.238 72.4661C112.984 72.1863 112.648 72.1087 112.378 72.1087V73.6133ZM112.03 73.3055V84.0051H113.535V73.3055H112.03ZM112.03 84.0051C112.03 84.0541 112.017 83.9504 112.125 83.8324C112.244 83.7008 112.378 83.6973 112.378 83.6973V85.2019C112.648 85.2019 112.984 85.1243 113.238 84.8445C113.48 84.5783 113.535 84.2524 113.535 84.0051H112.03ZM112.378 83.6973H111.667V85.2019H112.378V83.6973ZM111.667 83.6973C111.567 83.6973 111.526 83.6793 111.519 83.6757C111.517 83.6746 111.516 83.674 111.515 83.6738C111.515 83.6737 111.515 83.6737 111.515 83.6735C111.515 83.6733 111.514 83.6723 111.512 83.6703C111.51 83.6682 111.508 83.6644 111.504 83.6585L110.214 84.4326C110.541 84.9771 111.088 85.2019 111.667 85.2019V83.6973ZM111.505 83.6592L106.122 74.6648L104.831 75.4373L110.213 84.4318L111.505 83.6592ZM105.477 74.2988H105.445V75.8034H105.477V74.2988ZM104.693 75.0886C104.703 75.2916 104.708 75.4946 104.708 75.6976H106.213C106.213 75.4695 106.207 75.2415 106.196 75.0135L104.693 75.0886ZM104.708 75.6976V84.0051H106.213V75.6976H104.708ZM104.708 84.0051C104.708 84.0541 104.696 83.9504 104.803 83.8324C104.923 83.7008 105.056 83.6973 105.057 83.6973V85.2019C105.327 85.2019 105.662 85.1243 105.916 84.8445C106.158 84.5783 106.213 84.2524 106.213 84.0051H104.708ZM105.057 83.6973H104.313V85.2019H105.057V83.6973ZM115.934 83.6973C115.935 83.6973 116.068 83.7008 116.188 83.8324C116.295 83.9504 116.282 84.0541 116.282 84.0051H114.778C114.778 84.2524 114.832 84.5783 115.074 84.8445C115.329 85.1243 115.664 85.2019 115.934 85.2019V83.6973ZM116.282 84.0051V73.3055H114.778V84.0051H116.282ZM116.282 73.3055C116.282 73.2565 116.295 73.3602 116.188 73.4782C116.068 73.6098 115.935 73.6133 115.934 73.6133V72.1087C115.664 72.1087 115.329 72.1863 115.074 72.4661C114.832 72.7323 114.778 73.0582 114.778 73.3055H116.282ZM115.934 73.6133H116.678V72.1087H115.934V73.6133ZM116.678 73.6133C116.677 73.6133 116.544 73.6098 116.424 73.4782C116.317 73.3602 116.329 73.2565 116.329 73.3055H117.834C117.834 73.0582 117.779 72.7323 117.537 72.4661C117.283 72.1863 116.948 72.1087 116.678 72.1087V73.6133ZM116.329 73.3055V84.0051H117.834V73.3055H116.329ZM116.329 84.0051C116.329 84.0541 116.317 83.9504 116.424 83.8324C116.544 83.7008 116.677 83.6973 116.678 83.6973V85.2019C116.948 85.2019 117.283 85.1243 117.537 84.8445C117.779 84.5783 117.834 84.2524 117.834 84.0051H116.329ZM116.678 83.6973H115.934V85.2019H116.678V83.6973ZM120.597 74.2268L120.031 73.7316L120.03 73.7318L120.597 74.2268ZM127.167 73.1439L126.818 73.8102L126.822 73.8124L127.167 73.1439ZM128.605 74.5662L127.928 74.8929L127.928 74.8932L128.605 74.5662ZM128.533 75.2127L128.911 75.8628L128.917 75.8593L128.533 75.2127ZM127.894 75.5844L128.269 76.2366L128.273 76.2345L127.894 75.5844ZM127.321 75.2773L127.991 74.9365L127.987 74.9283L127.321 75.2773ZM121.769 75.14L121.161 74.6961L121.161 74.6968L121.769 75.14ZM121.769 82.1787L121.159 82.6201L121.163 82.6245L121.769 82.1787ZM126.569 82.898L126.114 82.2986L126.111 82.3012L126.569 82.898ZM127.587 81.7828L128.249 82.1411L128.251 82.1374L127.587 81.7828ZM128.169 81.4999L128.54 80.8453L128.537 80.8438L128.169 81.4999ZM128.84 81.8797L129.219 81.2299L129.211 81.2251L128.84 81.8797ZM128.888 82.5262L129.558 82.8696L129.559 82.8672L128.888 82.5262ZM127.337 84.0778L127.71 84.731L127.714 84.7289L127.337 84.0778ZM120.597 83.0919L120.029 83.5855L120.032 83.5885L120.597 83.0919ZM119.951 78.6553C119.951 76.8906 120.386 75.6115 121.163 74.7218L120.03 73.7318C118.944 74.9755 118.447 76.6487 118.447 78.6553H119.951ZM121.163 74.722C121.926 73.8499 123.042 73.3709 124.629 73.3709V71.8663C122.716 71.8663 121.143 72.4594 120.031 73.7316L121.163 74.722ZM124.629 73.3709C125.573 73.3709 126.289 73.533 126.818 73.8102L127.516 72.4776C126.709 72.0544 125.733 71.8663 124.629 71.8663V73.3709ZM126.822 73.8124C127.364 74.0919 127.716 74.4543 127.928 74.8929L129.283 74.2395C128.913 73.4713 128.306 72.8854 127.512 72.4754L126.822 73.8124ZM127.928 74.8932C127.938 74.9137 127.944 74.9295 127.949 74.9408C127.951 74.9464 127.952 74.9506 127.953 74.9535C127.954 74.9564 127.954 74.9578 127.954 74.9578C127.954 74.9577 127.954 74.956 127.953 74.9528C127.953 74.9495 127.952 74.9445 127.951 74.9379C127.95 74.9247 127.95 74.9042 127.953 74.8781C127.959 74.822 127.98 74.7532 128.024 74.6871C128.067 74.6226 128.117 74.5848 128.148 74.5661L128.917 75.8593C129.203 75.6894 129.408 75.4063 129.448 75.0463C129.483 74.7366 129.386 74.4534 129.283 74.2391L127.928 74.8932ZM128.154 74.5626L127.516 74.9343L128.273 76.2345L128.911 75.8628L128.154 74.5626ZM127.519 74.9323C127.546 74.9171 127.607 74.8885 127.697 74.8837C127.793 74.8786 127.879 74.9025 127.944 74.9373C127.974 74.9533 127.995 74.9693 128.009 74.9807C128.022 74.992 128.028 74.9997 128.029 75.0005C128.029 75.0008 128.015 74.9834 127.991 74.9365L126.65 75.6182C126.759 75.8338 126.937 76.105 127.234 76.2639C127.596 76.4573 127.975 76.4057 128.269 76.2366L127.519 74.9323ZM127.987 74.9283C127.742 74.4609 127.362 74.0612 126.893 73.7171L126.003 74.9304C126.342 75.1789 126.543 75.4149 126.654 75.6264L127.987 74.9283ZM126.893 73.7171C126.309 73.2892 125.548 73.127 124.71 73.127V74.6316C125.381 74.6316 125.778 74.7657 126.003 74.9304L126.893 73.7171ZM124.71 73.127C123.201 73.127 121.957 73.6066 121.161 74.6961L122.376 75.5838C122.808 74.9924 123.526 74.6316 124.71 74.6316V73.127ZM121.161 74.6968C120.424 75.7075 120.103 77.0576 120.103 78.6553H121.608C121.608 77.236 121.896 76.2425 122.377 75.5831L121.161 74.6968ZM120.103 78.6553C120.103 80.2534 120.424 81.6049 121.159 82.6201L122.378 81.7374C121.896 81.0717 121.608 80.0742 121.608 78.6553H120.103ZM121.163 82.6245C121.96 83.7079 123.203 84.1836 124.71 84.1836V82.6791C123.524 82.6791 122.806 82.3197 122.375 81.733L121.163 82.6245ZM124.71 84.1836C125.597 84.1836 126.395 83.9799 127.027 83.4948L126.111 82.3012C125.816 82.5273 125.375 82.6791 124.71 82.6791V84.1836ZM127.024 83.4973C127.551 83.0975 127.974 82.649 128.249 82.1411L126.926 81.4245C126.781 81.6924 126.525 81.9873 126.114 82.2986L127.024 83.4973ZM128.251 82.1374C128.273 82.0965 128.284 82.0844 128.28 82.0887C128.276 82.0931 128.247 82.125 128.187 82.1543C128.121 82.1862 128.04 82.2043 127.955 82.1983C127.875 82.1926 127.822 82.1677 127.801 82.156L128.537 80.8438C128.255 80.6854 127.889 80.6263 127.529 80.8011C127.224 80.9495 127.038 81.2141 126.924 81.4281L128.251 82.1374ZM127.798 82.1545L128.469 82.5344L129.211 81.2251L128.54 80.8453L127.798 82.1545ZM128.461 82.5296C128.422 82.5068 128.365 82.4628 128.318 82.389C128.27 82.3142 128.251 82.2391 128.247 82.1825C128.243 82.1308 128.252 82.1032 128.25 82.1091C128.249 82.1145 128.241 82.1391 128.218 82.1853L129.559 82.8672C129.666 82.657 129.771 82.3773 129.748 82.07C129.72 81.7041 129.52 81.4054 129.219 81.2299L128.461 82.5296ZM128.219 82.1828C127.979 82.6513 127.575 83.0704 126.96 83.4268L127.714 84.7289C128.531 84.2556 129.162 83.6403 129.558 82.8696L128.219 82.1828ZM126.963 83.4247C126.391 83.7517 125.627 83.9397 124.629 83.9397V85.4443C125.808 85.4443 126.849 85.2229 127.71 84.731L126.963 83.4247ZM124.629 83.9397C123.04 83.9397 121.924 83.4626 121.162 82.5953L120.032 83.5885C121.145 84.8548 122.717 85.4443 124.629 85.4443V83.9397ZM121.165 82.5984C120.386 81.7026 119.951 80.4197 119.951 78.6553H118.447C118.447 80.6621 118.944 82.337 120.029 83.5855L121.165 82.5984ZM130.359 83.9162L129.656 83.6484L129.656 83.6497L130.359 83.9162ZM134.384 73.354L135.087 73.6218L135.088 73.6194L134.384 73.354ZM136.582 73.354L135.878 73.6194L135.879 73.6218L136.582 73.354ZM140.606 83.9162L141.31 83.6497L141.309 83.6484L140.606 83.9162ZM138.982 84.0536L138.278 84.3194L138.28 84.3256L138.982 84.0536ZM137.972 81.3787L138.675 81.1129L138.492 80.6264H137.972V81.3787ZM132.994 81.3787V80.6264H132.474L132.29 81.1129L132.994 81.3787ZM131.983 84.0536L132.685 84.3256L132.687 84.3194L131.983 84.0536ZM133.503 80.0534L132.8 79.7846L132.41 80.8057H133.503V80.0534ZM137.463 80.0534V80.8057H138.556L138.165 79.7846L137.463 80.0534ZM136.226 76.8209L135.522 77.085L135.523 77.0896L136.226 76.8209ZM135.887 75.8188L135.165 76.0311L135.168 76.0408L135.887 75.8188ZM135.499 74.2591L136.233 74.0947L136.101 73.5068H135.499V74.2591ZM135.466 74.2591V73.5068H134.864L134.732 74.0947L135.466 74.2591ZM135.07 75.8188L134.352 75.5968L134.349 75.6065L135.07 75.8188ZM134.739 76.8209L135.442 77.0896L135.444 77.085L134.739 76.8209ZM130.577 83.6973C130.579 83.6973 130.649 83.6963 130.745 83.7444C130.857 83.8013 130.956 83.9027 131.009 84.0314C131.054 84.142 131.046 84.2244 131.044 84.2364C131.043 84.2507 131.043 84.2356 131.063 84.1827L129.656 83.6497C129.578 83.855 129.464 84.2288 129.616 84.6011C129.82 85.0987 130.296 85.2019 130.577 85.2019V83.6973ZM131.062 84.1841L135.087 73.6218L133.681 73.0861L129.656 83.6484L131.062 84.1841ZM135.088 73.6194C135.105 73.5724 135.12 73.5447 135.128 73.531C135.137 73.5174 135.136 73.5228 135.12 73.5367C135.104 73.5518 135.075 73.5732 135.033 73.59C134.991 73.607 134.95 73.6133 134.917 73.6133V72.1087C134.218 72.1087 133.847 72.6436 133.68 73.0886L135.088 73.6194ZM134.917 73.6133H136.048V72.1087H134.917V73.6133ZM136.048 73.6133C136.015 73.6133 135.974 73.607 135.932 73.59C135.89 73.5732 135.861 73.5518 135.845 73.5367C135.83 73.5228 135.829 73.5174 135.837 73.531C135.845 73.5447 135.86 73.5724 135.878 73.6194L137.286 73.0886C137.118 72.6436 136.747 72.1087 136.048 72.1087V73.6133ZM135.879 73.6218L139.903 84.1841L141.309 83.6484L137.285 73.0861L135.879 73.6218ZM139.903 84.1827C139.923 84.2356 139.923 84.2507 139.921 84.2364C139.92 84.2244 139.911 84.142 139.956 84.0314C140.009 83.9027 140.108 83.8013 140.221 83.7444C140.316 83.6963 140.386 83.6973 140.388 83.6973V85.2019C140.67 85.2019 141.145 85.0987 141.349 84.6011C141.501 84.2288 141.387 83.855 141.31 83.6497L139.903 84.1827ZM140.388 83.6973H139.564V85.2019H140.388V83.6973ZM139.564 83.6973C139.55 83.6973 139.552 83.6957 139.566 83.6995C139.581 83.7036 139.603 83.7124 139.627 83.7287C139.651 83.7449 139.668 83.7627 139.678 83.7761C139.688 83.7887 139.688 83.7929 139.683 83.7816L138.28 84.3256C138.375 84.5698 138.534 84.8043 138.781 84.9725C139.027 85.1404 139.303 85.2019 139.564 85.2019V83.6973ZM139.686 83.7878L138.675 81.1129L137.268 81.6445L138.278 84.3194L139.686 83.7878ZM137.972 80.6264H132.994V82.131H137.972V80.6264ZM132.29 81.1129L131.28 83.7878L132.687 84.3194L133.697 81.6445L132.29 81.1129ZM131.282 83.7816C131.278 83.7929 131.278 83.7887 131.287 83.7761C131.297 83.7627 131.314 83.7449 131.338 83.7287C131.362 83.7124 131.384 83.7036 131.399 83.6995C131.413 83.6957 131.415 83.6973 131.402 83.6973V85.2019C131.662 85.2019 131.938 85.1404 132.184 84.9725C132.432 84.8043 132.59 84.5698 132.685 84.3256L131.282 83.7816ZM131.402 83.6973H130.577V85.2019H131.402V83.6973ZM133.503 80.8057H137.463V79.3011H133.503V80.8057ZM138.165 79.7846L136.929 76.5521L135.523 77.0896L136.76 80.3221L138.165 79.7846ZM136.931 76.5567C136.823 76.2712 136.715 75.9515 136.605 75.5968L135.168 76.0408C135.285 76.4187 135.402 76.7671 135.522 77.085L136.931 76.5567ZM136.608 75.6065C136.508 75.2637 136.383 74.7626 136.233 74.0947L134.765 74.4235C134.917 75.1025 135.05 75.6411 135.165 76.0311L136.608 75.6065ZM135.499 73.5068H135.466V75.0114H135.499V73.5068ZM134.732 74.0947C134.583 74.7614 134.456 75.2587 134.352 75.5968L135.789 76.0408C135.911 75.6461 136.048 75.1037 136.201 74.4235L134.732 74.0947ZM134.349 75.6065C134.245 75.9585 134.14 76.2749 134.035 76.5567L135.444 77.085C135.564 76.7635 135.68 76.4118 135.792 76.0311L134.349 75.6065ZM134.037 76.5521L132.8 79.7846L134.205 80.3221L135.442 77.0896L134.037 76.5521Z" fill="#3D83F4" mask="url(#path-1-outside-1_539_34)"/>
<path d="M45.3255 33.8486C45.1287 33.8486 44.9503 33.964 44.8695 34.1435L43.1769 37.9049C43.1072 38.0596 43.1208 38.2391 43.2129 38.3816C43.3051 38.5241 43.4631 38.6101 43.6328 38.6101H58.3025C58.4629 38.6101 58.6136 38.5332 58.7076 38.4032C58.8016 38.2733 58.8276 38.1062 58.7775 37.9538L57.5398 34.1924C57.4724 33.9872 57.2808 33.8486 57.0649 33.8486H45.3255Z" stroke="url(#paint0_linear_539_34)" stroke-linejoin="round"/>
<path d="M52.7419 12.657L34.4784 58.422H28.5869L49.5016 5.47814C51.5636 0.991363 53.6256 0.69229 55.9822 5.47814L77.486 58.422H70.1217L52.7419 12.657Z" stroke="url(#paint1_linear_539_34)" stroke-width="3" stroke-linejoin="round"/>
<path d="M81.7004 13.2672L63.1559 58.422H57.1738L78.4103 6.18408C80.504 1.75713 82.5977 1.46205 84.9906 6.18408L106.825 58.422H99.3476L81.7004 13.2672Z" stroke="url(#paint2_linear_539_34)" stroke-width="3" stroke-linejoin="round"/>
<path d="M34.0672 38.6247L30.4935 38.7152L30.4742 38.7593L30.4742 38.7594C30.0634 39.7008 29.3888 40.5041 28.5421 41.0746L28.2618 40.6587L28.5421 41.0746C27.7221 41.6272 26.7413 41.9611 25.6844 41.9883L25.6843 41.9883C24.5081 42.0186 23.4077 41.6669 22.5044 41.0468L22.5043 41.0467C21.8664 40.6086 21.3266 40.0358 20.9271 39.368L20.4154 38.5125L21.4073 38.6115L25.13 38.983C25.13 38.983 25.1301 38.983 25.1302 38.983C25.8164 39.051 26.4634 38.8356 26.9567 38.4319C27.4493 38.0286 27.788 37.4374 27.8578 36.7514L27.8658 36.6534C27.8681 36.5807 27.8669 36.5234 27.8654 36.4549C27.8644 36.4085 27.8633 36.357 27.8631 36.2921C27.8145 35.7032 27.558 35.1633 27.16 34.7562L27.16 34.7561C26.7641 34.351 26.2299 34.078 25.6226 34.0174L22.0524 33.6613L20.9988 33.5562L21.7475 32.8076C22.0973 32.4579 22.4949 32.1561 22.9303 31.9134C23.6653 31.5036 24.5073 31.2606 25.404 31.2376C26.464 31.2101 27.4622 31.4926 28.3097 32.0019L28.3098 32.0019C29.1825 32.5266 29.8962 33.2943 30.3559 34.2149C30.3559 34.2149 30.356 34.2149 30.356 34.2149L30.3768 34.2565L36.1274 34.1225L36.2003 33.9675L30.7764 34.1002L30.4793 34.1074L30.3302 33.8503C29.8599 33.0387 29.1876 32.3575 28.3838 31.8742C27.5145 31.3517 26.4916 31.0623 25.403 31.0906L25.4028 31.0906C24.4778 31.1142 23.6135 31.3636 22.8595 31.7839L34.0672 38.6247ZM34.0672 38.6247L34.0051 38.7862L30.8991 38.8544L30.6002 38.861L30.4638 39.1271C30.0353 39.963 29.4006 40.6772 28.6265 41.1989C27.786 41.7653 26.7782 42.1071 25.6856 42.1354L34.0672 38.6247ZM20.2969 38.352L25.1422 38.8355L25.1423 38.8356C25.7865 38.8996 26.3971 38.6954 26.8614 38.3153L26.8614 38.3153C27.3254 37.9355 27.6462 37.3781 27.7108 36.7353L27.7117 36.7263L27.7122 36.7174L27.721 36.5821L27.7224 36.5596L27.7218 36.537L27.7169 36.3449L27.7166 36.3321L27.7156 36.3194C27.6724 35.7571 27.4289 35.2432 27.0521 34.8577L27.0521 34.8577C26.6814 34.4783 26.1788 34.2215 25.6095 34.1648C25.6094 34.1648 25.6094 34.1648 25.6094 34.1648L20.8528 33.6902L20.9196 33.5884C20.9197 33.5884 20.9197 33.5883 20.9197 33.5883C21.4082 32.8438 22.0741 32.2219 22.8594 31.7839L20.2969 38.352ZM20.2969 38.352L20.3356 38.4611C20.73 39.5709 21.4697 40.5168 22.4227 41.1713L20.2969 38.352ZM22.4228 41.1713C23.3482 41.8068 24.4758 42.1666 25.6855 42.1354L22.4228 41.1713Z" fill="white" stroke="url(#paint3_linear_539_34)" stroke-width="1.00306"/>
<line x1="15.0433" y1="65.5688" x2="122.621" y2="64.8165" stroke="#4980EA" stroke-width="0.752294"/>
<defs>
<linearGradient id="paint0_linear_539_34" x1="38" y1="36.5" x2="58" y2="36.5" gradientUnits="userSpaceOnUse">
<stop stop-color="#2461FF"/>
<stop offset="1" stop-color="#00237D"/>
</linearGradient>
<linearGradient id="paint1_linear_539_34" x1="53.0365" y1="2" x2="53.0365" y2="58.422" gradientUnits="userSpaceOnUse">
<stop stop-color="#2461FF"/>
<stop offset="1" stop-color="#00237D"/>
</linearGradient>
<linearGradient id="paint2_linear_539_34" x1="81.9995" y1="2.75232" x2="81.9995" y2="58.422" gradientUnits="userSpaceOnUse">
<stop stop-color="#2461FF"/>
<stop offset="1" stop-color="#00237D"/>
</linearGradient>
<linearGradient id="paint3_linear_539_34" x1="20.5" y1="36" x2="59" y2="36" gradientUnits="userSpaceOnUse">
<stop stop-color="#2461FF"/>
<stop offset="0.980585" stop-color="#00237D"/>
</linearGradient>
</defs>
</svg>
