<svg width="171" height="34" viewBox="0 0 171 34" fill="none" xmlns="http://www.w3.org/2000/svg">
<path d="M17.3211 0L21.21 11.7139H33.7945L23.6134 18.9536L27.5022 30.6675L17.3211 23.4279L7.14002 30.6675L11.0289 18.9536L0.847755 11.7139H13.4323L17.3211 0Z" fill="white"/>
<path d="M51.9637 0L55.8525 11.7139H68.4371L58.256 18.9536L62.1448 30.6675L51.9637 23.4279L41.7826 30.6675L45.6714 18.9536L35.4903 11.7139H48.0749L51.9637 0Z" fill="white"/>
<path d="M86.6063 0L90.4951 11.7139H103.08L92.8985 18.9536L96.7874 30.6675L86.6063 23.4279L76.4252 30.6675L80.314 18.9536L70.1329 11.7139H82.7174L86.6063 0Z" fill="white"/>
<path d="M121.247 0L125.136 11.7139H137.72L127.539 18.9536L131.428 30.6675L121.247 23.4279L111.066 30.6675L114.955 18.9536L104.774 11.7139H117.358L121.247 0Z" fill="white"/>
<path d="M153.321 0L157.21 11.7139H169.794L159.613 18.9536L163.502 30.6675L153.321 23.4279L143.14 30.6675L147.029 18.9536L136.848 11.7139H149.432L153.321 0Z" fill="white"/>
</svg>
